<svg width="40" height="25" viewBox="0 0 40 25" fill="none" xmlns="http://www.w3.org/2000/svg">
<path d="M15.0587 2.32239C14.4231 2.32239 13.8135 2.47827 13.3641 2.75575C12.9147 3.03323 12.6622 3.40958 12.6622 3.802V4.5418C12.6622 4.73801 12.5359 4.92618 12.3112 5.06492C12.0865 5.20366 11.7817 5.28161 11.4639 5.28161C11.1461 5.28161 10.8414 5.20366 10.6167 5.06492C10.3919 4.92618 10.2657 4.73801 10.2657 4.5418V3.802C10.2657 3.01716 10.7707 2.26447 11.6695 1.70951C12.5684 1.15455 13.7875 0.842773 15.0587 0.842773H16.2569C16.5747 0.842773 16.8795 0.920717 17.1042 1.05946C17.329 1.1982 17.4552 1.38637 17.4552 1.58258C17.4552 1.77879 17.329 1.96696 17.1042 2.1057C16.8795 2.24444 16.5747 2.32239 16.2569 2.32239H15.0587ZM12.6622 15.6389C12.6622 16.0313 12.9147 16.4077 13.3641 16.6851C13.8135 16.9626 14.4231 17.1185 15.0587 17.1185H16.2569C16.5747 17.1185 16.8795 17.1964 17.1042 17.3352C17.329 17.4739 17.4552 17.6621 17.4552 17.8583C17.4552 18.0545 17.329 18.2427 17.1042 18.3814C16.8795 18.5202 16.5747 18.5981 16.2569 18.5981H15.0587C13.7875 18.5981 12.5684 18.2863 11.6695 17.7314C10.7707 17.1764 10.2657 16.4237 10.2657 15.6389V14.8991C10.2657 14.7029 10.3919 14.5147 10.6167 14.376C10.8414 14.2372 11.1461 14.1593 11.4639 14.1593C11.7817 14.1593 12.0865 14.2372 12.3112 14.376C12.5359 14.5147 12.6622 14.7029 12.6622 14.8991V15.6389ZM12.6622 7.50103C12.6622 7.30482 12.5359 7.11664 12.3112 6.9779C12.0865 6.83916 11.7817 6.76122 11.4639 6.76122C11.1461 6.76122 10.8414 6.83916 10.6167 6.9779C10.3919 7.11664 10.2657 7.30482 10.2657 7.50103V11.9399C10.2657 12.1361 10.3919 12.3242 10.6167 12.463C10.8414 12.6017 11.1461 12.6797 11.4639 12.6797C11.7817 12.6797 12.0865 12.6017 12.3112 12.463C12.5359 12.3242 12.6622 12.1361 12.6622 11.9399V7.50103ZM34.2307 2.32239C34.8663 2.32239 35.4759 2.47827 35.9253 2.75575C36.3747 3.03323 36.6272 3.40958 36.6272 3.802V4.5418C36.6272 4.73801 36.7534 4.92618 36.9782 5.06492C37.2029 5.20366 37.5077 5.28161 37.8255 5.28161C38.1433 5.28161 38.448 5.20366 38.6727 5.06492C38.8975 4.92618 39.0237 4.73801 39.0237 4.5418V3.802C39.0237 3.01716 38.5187 2.26447 37.6199 1.70951C36.721 1.15455 35.5019 0.842773 34.2307 0.842773H33.0325C32.7147 0.842773 32.4099 0.920717 32.1852 1.05946C31.9604 1.1982 31.8342 1.38637 31.8342 1.58258C31.8342 1.77879 31.9604 1.96696 32.1852 2.1057C32.4099 2.24444 32.7147 2.32239 33.0325 2.32239H34.2307ZM34.2307 17.1185C34.8663 17.1185 35.4759 16.9626 35.9253 16.6851C36.3747 16.4077 36.6272 16.0313 36.6272 15.6389V14.8991C36.6272 14.7029 36.7534 14.5147 36.9782 14.376C37.2029 14.2372 37.5077 14.1593 37.8255 14.1593C38.1433 14.1593 38.448 14.2372 38.6727 14.376C38.8975 14.5147 39.0237 14.7029 39.0237 14.8991V15.6389C39.0237 16.4237 38.5187 17.1764 37.6199 17.7314C36.721 18.2863 35.5019 18.5981 34.2307 18.5981H33.0325C32.7147 18.5981 32.4099 18.5202 32.1852 18.3814C31.9604 18.2427 31.8342 18.0545 31.8342 17.8583C31.8342 17.6621 31.9604 17.4739 32.1852 17.3352C32.4099 17.1964 32.7147 17.1185 33.0325 17.1185H34.2307ZM37.8255 6.76122C37.5077 6.76122 37.2029 6.83916 36.9782 6.9779C36.7534 7.11664 36.6272 7.30482 36.6272 7.50103V11.9399C36.6272 12.1361 36.7534 12.3242 36.9782 12.463C37.2029 12.6017 37.5077 12.6797 37.8255 12.6797C38.1433 12.6797 38.448 12.6017 38.6727 12.463C38.8975 12.3242 39.0237 12.1361 39.0237 11.9399V7.50103C39.0237 7.30482 38.8975 7.11664 38.6727 6.9779C38.448 6.83916 38.1433 6.76122 37.8255 6.76122ZM21.0499 0.842773C20.7322 0.842773 20.4274 0.920717 20.2027 1.05946C19.9779 1.1982 19.8517 1.38637 19.8517 1.58258C19.8517 1.77879 19.9779 1.96696 20.2027 2.1057C20.4274 2.24444 20.7322 2.32239 21.0499 2.32239H28.2395C28.5572 2.32239 28.862 2.24444 29.0867 2.1057C29.3115 1.96696 29.4377 1.77879 29.4377 1.58258C29.4377 1.38637 29.3115 1.1982 29.0867 1.05946C28.862 0.920717 28.5572 0.842773 28.2395 0.842773H21.0499ZM19.8517 17.8583C19.8517 17.6621 19.9779 17.4739 20.2027 17.3352C20.4274 17.1964 20.7322 17.1185 21.0499 17.1185H28.2395C28.5572 17.1185 28.862 17.1964 29.0867 17.3352C29.3115 17.4739 29.4377 17.6621 29.4377 17.8583C29.4377 18.0545 29.3115 18.2427 29.0867 18.3814C28.862 18.5202 28.5572 18.5981 28.2395 18.5981H21.0499C20.7322 18.5981 20.4274 18.5202 20.2027 18.3814C19.9779 18.2427 19.8517 18.0545 19.8517 17.8583ZM5.47269 6.76122H7.86919V16.3787C7.86919 17.3597 8.50041 18.3006 9.62399 18.9943C10.7476 19.688 12.2715 20.0777 13.8604 20.0777H29.4377V21.5573C29.4377 22.3422 28.9327 23.0949 28.0339 23.6498C27.135 24.2048 25.9159 24.5166 24.6447 24.5166H9.06744C6.84287 24.5166 4.70941 23.971 3.1364 22.9998C1.56339 22.0286 0.679688 20.7114 0.679688 19.3379V9.72044C0.679687 8.93561 1.18466 8.18292 2.08353 7.62796C2.98239 7.07299 4.20151 6.76122 5.47269 6.76122Z" fill="#222222"/>
</svg>
