<svg width="41" height="35" viewBox="0 0 41 35" fill="none" xmlns="http://www.w3.org/2000/svg">
<path opacity="0.4" d="M15.3751 2.91669C10.8992 2.91669 7.2605 6.02294 7.2605 9.84377C7.2605 13.5917 10.6942 16.625 15.1701 16.7563C15.3067 16.7417 15.4434 16.7417 15.5459 16.7563C15.5801 16.7563 15.5972 16.7563 15.6313 16.7563C15.6484 16.7563 15.6484 16.7563 15.6655 16.7563C20.0388 16.625 23.4726 13.5917 23.4897 9.84377C23.4897 6.02294 19.8509 2.91669 15.3751 2.91669Z" fill="#00FBFF"/>
<path d="M24.0534 20.6354C19.2871 17.9229 11.5142 17.9229 6.71381 20.6354C4.54422 21.875 3.34839 23.5521 3.34839 25.3458C3.34839 27.1396 4.54422 28.8021 6.69672 30.0271C9.08839 31.3979 12.2317 32.0833 15.3751 32.0833C18.5184 32.0833 21.6617 31.3979 24.0534 30.0271C26.2059 28.7875 27.4017 27.125 27.4017 25.3166C27.3846 23.5229 26.2059 21.8604 24.0534 20.6354Z" fill="#00FBFF"/>
<path opacity="0.4" d="M34.1495 10.7041C34.4228 13.5333 32.0653 16.0125 28.8024 16.3479C28.7853 16.3479 28.7853 16.3479 28.7682 16.3479H28.717C28.6145 16.3479 28.512 16.3479 28.4266 16.3771C26.7695 16.45 25.2491 15.9979 24.1045 15.1666C25.8641 13.825 26.872 11.8125 26.667 9.62498C26.5474 8.44373 26.0691 7.36457 25.3516 6.44582C26.0007 6.16873 26.7524 5.99373 27.5212 5.9354C30.8695 5.68748 33.8591 7.81665 34.1495 10.7041Z" fill="#00FBFF"/>
<path d="M37.5663 24.1937C37.4297 25.6083 36.3705 26.8333 34.5938 27.6646C32.8855 28.4667 30.733 28.8458 28.5976 28.8021C29.8276 27.8542 30.5451 26.6729 30.6817 25.4187C30.8526 23.6104 29.8447 21.875 27.8288 20.4896C26.6842 19.7167 25.3517 19.1042 23.8997 18.6521C27.6751 17.7187 32.4242 18.3458 35.3455 20.3583C36.9172 21.4375 37.7201 22.7937 37.5663 24.1937Z" fill="#00FBFF"/>
</svg>
