<svg width="41" height="35" viewBox="0 0 41 35" fill="none" xmlns="http://www.w3.org/2000/svg">
<path opacity="0.4" d="M15.3748 2.91669C10.899 2.91669 7.26025 6.02294 7.26025 9.84377C7.26025 13.5917 10.694 16.625 15.1698 16.7563C15.3065 16.7417 15.4432 16.7417 15.5457 16.7563C15.5798 16.7563 15.5969 16.7563 15.6311 16.7563C15.6482 16.7563 15.6482 16.7563 15.6653 16.7563C20.0386 16.625 23.4723 13.5917 23.4894 9.84377C23.4894 6.02294 19.8507 2.91669 15.3748 2.91669Z" fill="white"/>
<path d="M24.0531 20.6354C19.2869 17.9229 11.514 17.9229 6.71356 20.6354C4.54398 21.875 3.34814 23.5521 3.34814 25.3458C3.34814 27.1396 4.54398 28.8021 6.69648 30.0271C9.08814 31.3979 12.2315 32.0833 15.3748 32.0833C18.5181 32.0833 21.6615 31.3979 24.0531 30.0271C26.2056 28.7875 27.4015 27.125 27.4015 25.3166C27.3844 23.5229 26.2056 21.8604 24.0531 20.6354Z" fill="white"/>
<path opacity="0.4" d="M34.1495 10.7041C34.4228 13.5333 32.0653 16.0125 28.8024 16.3479C28.7853 16.3479 28.7853 16.3479 28.7682 16.3479H28.717C28.6145 16.3479 28.512 16.3479 28.4266 16.3771C26.7695 16.45 25.2491 15.9979 24.1045 15.1666C25.8641 13.825 26.872 11.8125 26.667 9.62498C26.5474 8.44373 26.0691 7.36457 25.3516 6.44582C26.0007 6.16873 26.7524 5.99373 27.5212 5.9354C30.8695 5.68748 33.8591 7.81665 34.1495 10.7041Z" fill="white"/>
<path d="M37.5661 24.1937C37.4294 25.6083 36.3702 26.8333 34.5936 27.6646C32.8852 28.4667 30.7327 28.8458 28.5973 28.8021C29.8273 27.8542 30.5448 26.6729 30.6815 25.4187C30.8523 23.6104 29.8444 21.875 27.8286 20.4896C26.684 19.7167 25.3515 19.1042 23.8994 18.6521C27.6748 17.7187 32.424 18.3458 35.3452 20.3583C36.9169 21.4375 37.7198 22.7937 37.5661 24.1937Z" fill="white"/>
</svg>
