<svg width="35" height="35" viewBox="0 0 35 35" fill="none" xmlns="http://www.w3.org/2000/svg">
<path d="M31.3541 15.8958V5.97916C31.3541 3.79166 30.4208 2.91666 28.102 2.91666H22.2103C19.8916 2.91666 18.9583 3.79166 18.9583 5.97916V15.8958C18.9583 18.0833 19.8916 18.9583 22.2103 18.9583H28.102C30.4208 18.9583 31.3541 18.0833 31.3541 15.8958Z" fill="white"/>
<path d="M16.0416 19.1042V29.0208C16.0416 31.2083 15.1083 32.0833 12.7895 32.0833H6.89783C4.57909 32.0833 3.64575 31.2083 3.64575 29.0208V19.1042C3.64575 16.9167 4.57909 16.0417 6.89783 16.0417H12.7895C15.1083 16.0417 16.0416 16.9167 16.0416 19.1042Z" fill="white"/>
<path opacity="0.4" d="M31.3541 29.0208V24.9375C31.3541 22.75 30.4208 21.875 28.102 21.875H22.2103C19.8916 21.875 18.9583 22.75 18.9583 24.9375V29.0208C18.9583 31.2083 19.8916 32.0833 22.2103 32.0833H28.102C30.4208 32.0833 31.3541 31.2083 31.3541 29.0208Z" fill="white"/>
<path opacity="0.4" d="M16.0416 10.0625V5.97916C16.0416 3.79166 15.1083 2.91666 12.7895 2.91666H6.89783C4.57909 2.91666 3.64575 3.79166 3.64575 5.97916V10.0625C3.64575 12.25 4.57909 13.125 6.89783 13.125H12.7895C15.1083 13.125 16.0416 12.25 16.0416 10.0625Z" fill="white"/>
</svg>
