<svg width="35" height="35" viewBox="0 0 35 35" fill="none" xmlns="http://www.w3.org/2000/svg">
<path d="M31.3543 15.8958V5.97916C31.3543 3.79166 30.421 2.91666 28.1022 2.91666H22.2106C19.8918 2.91666 18.9585 3.79166 18.9585 5.97916V15.8958C18.9585 18.0833 19.8918 18.9583 22.2106 18.9583H28.1022C30.421 18.9583 31.3543 18.0833 31.3543 15.8958Z" fill="#00FBFF"/>
<path d="M16.0418 19.1042V29.0208C16.0418 31.2083 15.1085 32.0833 12.7897 32.0833H6.89808C4.57933 32.0833 3.646 31.2083 3.646 29.0208V19.1042C3.646 16.9167 4.57933 16.0417 6.89808 16.0417H12.7897C15.1085 16.0417 16.0418 16.9167 16.0418 19.1042Z" fill="#00FBFF"/>
<path opacity="0.4" d="M31.3543 29.0208V24.9375C31.3543 22.75 30.421 21.875 28.1022 21.875H22.2106C19.8918 21.875 18.9585 22.75 18.9585 24.9375V29.0208C18.9585 31.2083 19.8918 32.0833 22.2106 32.0833H28.1022C30.421 32.0833 31.3543 31.2083 31.3543 29.0208Z" fill="#00FBFF"/>
<path opacity="0.4" d="M16.0418 10.0625V5.97916C16.0418 3.79166 15.1085 2.91666 12.7897 2.91666H6.89808C4.57933 2.91666 3.646 3.79166 3.646 5.97916V10.0625C3.646 12.25 4.57933 13.125 6.89808 13.125H12.7897C15.1085 13.125 16.0418 12.25 16.0418 10.0625Z" fill="#00FBFF"/>
</svg>
